<svg width="537" height="91" viewBox="0 0 537 91" fill="none" xmlns="http://www.w3.org/2000/svg">
<path d="M104.568 81.6091L104.565 9.19638L124.377 6.2056L135.849 6.20633L135.848 18.8547L117.537 18.8535L117.536 39.2504L135.847 30.0217L135.847 44.1513L117.535 53.494L117.535 84.1837L104.568 81.6091Z" fill="white"/>
<path d="M142.332 17.0319C142.332 10.081 146.2 6.20699 152.796 6.20741L167.24 6.20832C173.837 6.20874 177.817 10.0833 177.816 17.0341L177.816 18.9713L164.737 25.8074L164.737 18.7425L155.297 18.7419L155.296 38.683L177.816 27.0616L177.813 74.4644C177.812 81.4153 173.831 85.2893 167.235 85.2889L152.791 85.2879C146.195 85.2875 142.328 81.413 142.328 74.4621L142.329 67.0555L155.295 60.3333L155.294 72.7537L164.734 72.7543L164.735 47.9135L142.329 59.6488L142.332 17.0319Z" fill="white"/>
<path d="M222.463 6.21183L222.459 72.644L231.899 72.6446L231.903 6.21243L244.982 6.21326L244.978 74.2408C244.978 81.7614 241.338 85.2936 233.604 85.2931L223.482 85.2924C218.819 85.2921 216.089 82.5572 216.09 77.6574C216.089 82.5572 213.246 85.2918 208.583 85.2915L197.665 85.2908C191.068 85.2904 187.202 81.4159 187.202 74.465L187.206 6.20959L200.172 6.21041L200.168 72.6426L209.721 72.6432L209.725 6.21102L222.463 6.21183Z" fill="white"/>
<path d="M299.92 34.3621L299.921 18.4093L289.458 18.4086L289.457 39.4892L299.92 34.3621ZM312.43 43.2509L312.428 74.359C312.428 81.7657 308.675 85.2978 300.827 85.2973L276.943 85.2958L276.948 6.21529L301.856 6.21687C308.452 6.21729 312.433 10.0918 312.432 17.0427L312.431 33.6792C312.431 38.8069 310.838 41.8834 306.858 43.2506L312.43 43.2509ZM299.918 72.9908L299.92 47.5802L289.456 52.8212L289.455 72.9901L299.918 72.9908Z" fill="white"/>
<path d="M357.299 85.3009L344.333 85.3001L344.335 51.7991L334.782 56.6983L334.78 85.2995L321.814 85.2987L321.819 17.0433C321.819 10.0924 325.686 6.21838 332.283 6.2188L346.727 6.21971C353.323 6.22013 357.304 10.0946 357.303 17.0455L357.299 85.3009ZM344.336 37.8974L344.338 18.7539L334.784 18.7533L334.783 42.5687L344.336 37.8974Z" fill="white"/>
<path d="M389.429 38.1281L389.431 18.7568L379.877 18.7562L379.876 42.9134L389.429 38.1281ZM402.394 45.4217L392.841 50.3209L407.624 85.3041L394.089 85.3033L381.808 56.0176L379.875 57.043L379.873 85.3024L366.907 85.3015L366.912 6.221L391.82 6.22258C398.416 6.22299 402.397 10.0975 402.396 17.0484L402.394 45.4217Z" fill="white"/>
<path d="M434.645 34.3707L434.646 18.4178L424.182 18.4172L424.181 39.4977L434.645 34.3707ZM447.155 43.2595L447.153 74.3675C447.152 81.7742 443.399 85.3064 435.551 85.3059L411.667 85.3044L411.672 6.22384L436.58 6.22542C443.176 6.22584 447.157 10.1003 447.156 17.0512L447.155 33.6878C447.155 38.8155 445.562 41.892 441.582 43.2591L447.155 43.2595ZM434.642 72.9994L434.644 47.5887L424.18 52.8297L424.179 72.9987L434.642 72.9994Z" fill="white"/>
<path d="M487.815 85.3092L456.538 85.3072L456.543 6.22668L487.82 6.22867L487.819 18.877L469.508 18.8758L469.507 39.2727L487.818 30.044L487.817 44.1736L469.506 53.5163L469.505 72.6597L487.816 72.6609L487.815 85.3092Z" fill="white"/>
<path d="M518.267 38.1363L518.268 18.765L508.715 18.7644L508.713 42.9215L518.267 38.1363ZM531.232 45.4298L521.678 50.329L536.461 85.3123L522.927 85.3114L510.646 56.0258L508.712 57.0512L508.71 85.3105L495.745 85.3097L495.75 6.22917L520.657 6.23075C527.254 6.23117 531.234 10.1057 531.234 17.0566L531.232 45.4298Z" fill="white"/>
<path d="M104.568 81.6091L104.565 9.19638L124.377 6.2056L135.849 6.20633L135.848 18.8547L117.537 18.8535L117.536 39.2504L135.847 30.0217L135.847 44.1513L117.535 53.494L117.535 84.1837L104.568 81.6091Z" fill="#8162FF"/>
<path d="M142.332 17.0319C142.332 10.081 146.2 6.20699 152.796 6.20741L167.24 6.20832C173.837 6.20874 177.817 10.0833 177.816 17.0341L177.816 18.9713L164.737 25.8074L164.737 18.7425L155.297 18.7419L155.296 38.683L177.816 27.0616L177.813 74.4644C177.812 81.4153 173.831 85.2893 167.235 85.2889L152.791 85.2879C146.195 85.2875 142.328 81.413 142.328 74.4621L142.329 67.0555L155.295 60.3333L155.294 72.7537L164.734 72.7543L164.735 47.9135L142.329 59.6488L142.332 17.0319Z" fill="#8162FF"/>
<path d="M222.463 6.21183L222.459 72.644L231.899 72.6446L231.903 6.21243L244.982 6.21326L244.978 74.2408C244.978 81.7614 241.338 85.2936 233.604 85.2931L223.482 85.2924C218.819 85.2921 216.089 82.5572 216.09 77.6574C216.089 82.5572 213.246 85.2918 208.583 85.2915L197.665 85.2908C191.068 85.2904 187.202 81.4159 187.202 74.465L187.206 6.20959L200.172 6.21041L200.168 72.6426L209.721 72.6432L209.725 6.21102L222.463 6.21183Z" fill="#8162FF"/>
<path fill-rule="evenodd" clip-rule="evenodd" d="M7.49596 20.3784C7.49574 23.7976 8.85527 27.0769 11.2755 29.4948C13.6956 31.9127 16.9782 33.2711 20.4011 33.2714C23.824 33.2716 27.1067 31.9135 29.5272 29.4959C31.9477 27.0783 33.3077 23.7992 33.3079 20.38C33.3081 16.9608 31.9486 13.6816 29.5284 11.2637C27.1082 8.84577 23.8256 7.48728 20.4027 7.48707C16.9799 7.48685 13.6971 8.84492 11.2766 11.2625C8.85612 13.6801 7.49618 16.9592 7.49596 20.3784ZM20.4006 40.7571C16.0329 40.7564 11.7808 39.3553 8.26985 36.76C4.75887 34.1648 2.17444 30.5124 0.896792 26.3402C-0.380859 22.1681 -0.284268 17.6964 1.17235 13.5832C2.62897 9.46996 5.36871 5.93233 8.98848 3.49078C12.6083 1.04923 16.9169 -0.167317 21.2806 0.0201149C25.6442 0.207547 29.8325 1.78907 33.2291 4.53199C36.6257 7.27491 39.0513 11.0344 40.1491 15.2574C41.2469 19.4803 40.9589 23.9437 39.3274 27.9909L47.3537 33.3479C47.2949 33.5355 47.2393 33.724 47.1872 33.9135L45.9046 38.4881L42.9653 40.4508L34.6891 34.9275C31.0086 38.5287 25.9627 40.7575 20.4006 40.7571ZM7.49279 70.4083C7.493 66.989 8.85294 63.71 11.2734 61.2924C13.6939 58.8748 16.9767 57.5167 20.3996 57.5169C23.8224 57.5171 27.105 58.8756 29.5252 61.2935C31.9454 63.7114 33.3049 66.9907 33.3047 70.4099C33.3045 73.8291 31.9446 77.1082 29.5241 79.5258C27.1036 81.9434 23.8208 83.3014 20.3979 83.3012C16.9751 83.301 13.6925 81.9425 11.2723 79.5246C8.85209 77.1067 7.49257 73.8275 7.49279 70.4083ZM20.4 50.0312C16.0362 50.0314 11.7874 51.4294 8.27776 54.02C4.76811 56.6106 2.18259 60.2572 0.900943 64.4242C-0.380701 68.5911 -0.290911 73.0588 1.15713 77.171C2.60516 81.2832 5.33512 84.8231 8.94603 87.2709C12.5569 89.7187 16.8585 90.9453 21.2188 90.7706C25.5792 90.5959 29.7685 89.029 33.1715 86.3001C36.5745 83.5712 39.0118 79.8241 40.1254 75.6093C41.239 71.3944 40.9702 66.9339 39.3585 62.8829L124.483 6.19224L116.565 6.8444C105.398 8.01745 94.5843 11.4345 84.7738 16.8899L59.1691 31.1113C58.2075 31.6478 57.3621 32.3695 56.6817 33.2346C56.0013 34.0998 55.4995 35.0912 55.2054 36.1514L53.0983 43.687L34.7544 55.9375C30.94 52.1497 25.7785 50.026 20.4 50.0312ZM59.0674 59.7235L59.1673 59.7817L84.7701 74.0063C94.58 79.463 105.393 82.8814 116.56 84.0559L115.416 78.4351L104.596 71.6465L72.9398 50.4504L59.0674 59.7235Z" fill="#8162FF"/>
</svg>
